<svg width="20" height="20" viewBox="0 0 20 20" fill="none" xmlns="http://www.w3.org/2000/svg">
<path d="M10 0C4.478 0 0 4.478 0 10C0 15.522 4.478 20 10 20C15.522 20 20 15.522 20 10C20 4.478 15.522 0 10 0ZM10 2.478C13.322 2.478 16.148 4.644 17.14 7.636H2.86C3.852 4.642 6.678 2.478 10 2.478ZM2.478 10H5.384L5.75 11.718C5.788 11.902 5.846 12.078 5.916 12.244L3.844 14.316C2.984 13.094 2.478 11.604 2.478 9.998V10ZM5.488 16.014L7.652 13.85C7.94 13.946 8.248 13.998 8.564 13.998H11.43C11.748 13.998 12.054 13.946 12.342 13.85L14.506 16.014C13.248 16.96 11.686 17.52 9.996 17.52C8.306 17.52 6.742 16.958 5.486 16.014H5.488ZM16.154 14.316L14.082 12.244C14.154 12.076 14.21 11.9 14.248 11.718L14.614 10H17.52C17.52 11.606 17.014 13.094 16.154 14.318V14.316Z" fill="#1C1A1A"/>
</svg>
