<svg width="20" height="20" viewBox="0 0 20 20" fill="none" xmlns="http://www.w3.org/2000/svg">
<mask id="mask0_126_204" style="mask-type:alpha" maskUnits="userSpaceOnUse" x="3" y="1" width="14" height="18">
<path fill-rule="evenodd" clip-rule="evenodd" d="M12.4086 2.38807C11.9521 1.93152 11.3366 1.66877 10.6909 1.66726C10.4725 1.66675 10.2424 1.66675 9.99967 1.66675C7.66612 1.66675 6.49935 1.66675 5.60805 2.12089C4.82404 2.52036 4.18662 3.15778 3.78715 3.94179C3.33301 4.83309 3.33301 5.99987 3.33301 8.33342V11.6667C3.33301 14.0003 3.33301 15.1671 3.78715 16.0584C4.18662 16.8424 4.82404 17.4798 5.60805 17.8792C6.49935 18.3334 7.66612 18.3334 9.99967 18.3334C12.3333 18.3334 13.5 18.3334 14.3913 17.8792C15.1753 17.4798 15.8128 16.8424 16.2122 16.0584C16.6663 15.1671 16.6663 14.0003 16.6663 11.6667V8.33342C16.6663 8.09071 16.6663 7.86061 16.6658 7.64215C16.6643 6.99649 16.4016 6.38101 15.945 5.92447L12.4086 2.38807Z" fill="white"/>
</mask>
<g mask="url(#mask0_126_204)">
<path d="M5.60805 2.12089L6.17553 3.23465L5.60805 2.12089ZM3.78715 3.94179L4.90091 4.50927L3.78715 3.94179ZM3.78715 16.0584L2.67339 16.6258L3.78715 16.0584ZM5.60805 17.8792L6.17553 16.7655L5.60805 17.8792ZM14.3913 17.8792L13.8238 16.7655L14.3913 17.8792ZM16.2122 16.0584L15.0984 15.4909L16.2122 16.0584ZM15.945 5.92447L15.0612 6.80836L15.945 5.92447ZM9.99968 2.91675C10.2427 2.91675 10.4713 2.91675 10.688 2.91726L10.6938 0.417263C10.4737 0.416748 10.2421 0.416749 9.99968 0.416749V2.91675ZM6.17553 3.23465C6.4156 3.11232 6.74731 3.01982 7.36481 2.96937C7.9969 2.91772 8.81226 2.91675 9.99968 2.91675V0.416749C8.85351 0.416749 7.91873 0.415776 7.16123 0.477668C6.38913 0.540751 5.69179 0.67531 5.04056 1.00713L6.17553 3.23465ZM4.90091 4.50927C5.18053 3.96047 5.62673 3.51427 6.17553 3.23465L5.04056 1.00713C4.02135 1.52644 3.1927 2.35509 2.67339 3.3743L4.90091 4.50927ZM4.58301 8.33342C4.58301 7.14602 4.58398 6.33064 4.63563 5.69855C4.68608 5.08105 4.77858 4.74934 4.90091 4.50927L2.67339 3.3743C2.34157 4.02553 2.20701 4.72287 2.14393 5.49497C2.08203 6.25247 2.08301 7.18727 2.08301 8.33342H4.58301ZM4.58301 11.6667V8.33342H2.08301V11.6667H4.58301ZM4.90091 15.4909C4.77858 15.2508 4.68608 14.9191 4.63563 14.3016C4.58398 13.6695 4.58301 12.8542 4.58301 11.6667H2.08301C2.08301 12.8129 2.08203 13.7477 2.14393 14.5052C2.20701 15.2773 2.34157 15.9747 2.67339 16.6258L4.90091 15.4909ZM6.17553 16.7655C5.62673 16.4859 5.18053 16.0397 4.90091 15.4909L2.67339 16.6258C3.1927 17.6451 4.02135 18.4737 5.04056 18.993L6.17553 16.7655ZM9.99968 17.0834C8.81226 17.0834 7.9969 17.0824 7.36481 17.0308C6.74731 16.9803 6.4156 16.8878 6.17553 16.7655L5.04056 18.993C5.69179 19.3248 6.38913 19.4594 7.16123 19.5225C7.91873 19.5844 8.85351 19.5834 9.99968 19.5834V17.0834ZM13.8238 16.7655C13.5838 16.8878 13.252 16.9803 12.6345 17.0308C12.0024 17.0824 11.1871 17.0834 9.99968 17.0834V19.5834C11.1458 19.5834 12.0806 19.5844 12.8381 19.5225C13.6103 19.4594 14.3076 19.3248 14.9588 18.993L13.8238 16.7655ZM15.0984 15.4909C14.8188 16.0397 14.3726 16.4859 13.8238 16.7655L14.9588 18.993C15.978 18.4737 16.8067 17.6451 17.3259 16.6258L15.0984 15.4909ZM15.4163 11.6667C15.4163 12.8542 15.4153 13.6695 15.3638 14.3016C15.3133 14.9191 15.2208 15.2508 15.0984 15.4909L17.3259 16.6258C17.6578 15.9747 17.7923 15.2773 17.8554 14.5052C17.9173 13.7477 17.9163 12.8129 17.9163 11.6667H15.4163ZM15.4163 8.33342V11.6667H17.9163V8.33342H15.4163ZM15.4158 7.64507C15.4163 7.86181 15.4163 8.09038 15.4163 8.33342H17.9163C17.9163 8.09102 17.9163 7.85942 17.9158 7.63922L15.4158 7.64507ZM16.8289 5.04058L13.2925 1.50418L11.5248 3.27196L15.0612 6.80836L16.8289 5.04058ZM17.9158 7.63922C17.9135 6.65395 17.5126 5.72432 16.8289 5.04058L15.0612 6.80836C15.2905 7.03772 15.4151 7.33904 15.4158 7.64507L17.9158 7.63922ZM10.688 2.91726C10.9941 2.91797 11.2953 3.04259 11.5248 3.27196L13.2925 1.50418C12.6088 0.820461 11.6792 0.419568 10.6938 0.417263L10.688 2.91726Z" fill="white"/>
<path d="M11.25 2.08325V4.58325C11.25 5.96396 12.3692 7.08325 13.75 7.08325H15.8333" stroke="white" stroke-width="1.5"/>
</g>
</svg>
