<svg width="100" height="58" viewBox="0 0 100 58" fill="none" xmlns="http://www.w3.org/2000/svg">
<path fill-rule="evenodd" clip-rule="evenodd" d="M68.7537 18.0963C72.2557 14.7524 76.5776 13.0503 81.4219 13.0503C83.1452 13.0503 84.852 13.285 86.5151 13.7344C88.2337 14.1992 89.8697 14.9033 91.3901 15.8269C92.8928 16.741 94.2587 17.8451 95.4512 19.1379C96.7664 20.5627 97.7867 22.2129 98.5051 24.0129C99.2611 25.9107 99.6303 27.9147 99.6303 29.9565C99.6303 32.1387 99.2647 34.2913 98.5652 36.3578C97.7018 38.9115 96.1955 41.464 94.7518 43.7311L88.6619 53.2971C87.1084 55.7989 84.5606 57.2603 81.6035 57.2603H75.352C72.6013 57.2603 70.1963 55.6349 69.2998 53.0199C69.1701 52.646 69.0757 52.2674 69.0156 51.8876C68.7478 53.2428 68.1156 54.4861 67.0564 55.4698L66.9773 55.5417C65.6574 56.7213 63.9754 57.2603 62.225 57.2603H57.6024C55.8544 57.2603 54.1747 56.7225 52.8548 55.5453L52.8123 55.5075L52.7711 55.4686C51.4582 54.249 50.8001 52.6307 50.6821 50.8932H42.4348C41.9276 50.8932 41.4263 50.8484 40.9392 50.7564L40.5499 52.2096C39.7655 55.136 37.0432 57.2603 34.0012 57.2603H31.7848C30.0875 57.2603 28.5907 56.608 27.4878 55.563C24.7206 57.1825 21.6008 57.9999 18.2332 57.9999C16.5075 57.9999 14.7972 57.7652 13.1305 57.3146C11.4167 56.851 9.78068 56.1563 8.26026 55.2374C6.76108 54.3315 5.39872 53.2204 4.20385 51.9394C2.87806 50.5158 1.85658 48.8727 1.13117 47.0692C0.366834 45.1689 0 43.1649 0 41.1161C0 38.9221 0.386886 36.766 1.08989 34.69C1.95566 32.1316 3.46664 29.5732 4.91865 27.3049L11.0133 17.7826C12.5549 15.2761 15.098 13.7863 18.0598 13.7863H24.3278C27.0372 13.7863 29.4045 15.3586 30.3541 17.9123L30.3753 17.9678L30.3953 18.0244C31.1255 20.1239 30.7433 22.3757 29.4199 24.1379L27.8499 26.3271C27.9313 26.3707 28.0127 26.4144 28.0929 26.4604C29.2559 27.108 30.3151 27.8782 31.2658 28.7628L33.954 18.7309C34.7384 15.8045 37.4619 13.6802 40.5028 13.6802H42.7191C46.3013 13.6802 48.9895 16.5865 48.9765 19.9506L51.6045 16.5936L51.6883 16.4969C53.1344 14.8161 55.0712 13.6872 57.3394 13.6872H62.225C63.9601 13.6872 65.6209 14.2157 66.9384 15.3728C67.8054 16.1324 68.3987 17.0654 68.7525 18.0928L68.7537 18.0963Z" fill="url(#paint0_linear_54_8924)"/>
<path fill-rule="evenodd" clip-rule="evenodd" d="M39.6611 19.4009H42.1476C43.0428 19.4009 43.5984 20.1876 43.3696 21.0381L35.1647 51.6575C34.9642 52.4053 34.2105 53.014 33.4297 53.014H30.9432C30.0479 53.014 29.4924 52.2272 29.72 51.3768L37.9248 20.7573C38.1265 20.0072 38.8767 19.4009 39.6599 19.4009H39.6611Z" fill="#264181"/>
<path fill-rule="evenodd" clip-rule="evenodd" d="M73.062 51.0346L78.9243 42.7778C78.712 42.8003 78.5044 42.8156 78.3145 42.8156C76.3447 42.8156 74.494 42.3367 72.7707 41.3825C71.0403 40.4247 69.6579 39.0942 68.6235 37.4074C67.5713 35.69 67.0629 33.8158 67.0629 31.8023C67.0629 28.2873 68.3923 25.3149 70.9224 22.8827C73.5044 20.3998 76.6077 19.179 80.1888 19.179C81.4721 19.179 82.7424 19.3559 83.9821 19.6909C85.2478 20.0329 86.4485 20.5507 87.5691 21.2313C88.6755 21.9037 89.6781 22.7117 90.5569 23.6635C91.4592 24.6414 92.1528 25.7702 92.6446 27.0051C93.1672 28.3156 93.4149 29.6945 93.4149 31.104C93.4149 32.7436 93.1377 34.356 92.6128 35.9082C91.8885 38.0491 90.5262 40.302 89.316 42.2034L83.2107 51.793C82.5667 52.8451 81.6125 53.4255 80.3716 53.4255H74.1201C73.4985 53.4255 72.9783 53.1447 72.7801 52.5479C72.5855 52.0053 72.7082 51.4769 73.0644 51.0334L73.062 51.0346ZM18.005 30.5603C18.2126 30.5414 18.4179 30.5296 18.6148 30.5296C20.5847 30.5296 22.446 31.0049 24.1669 31.9627C25.8973 32.9264 27.2797 34.2628 28.313 35.9531C29.3651 37.6728 29.8805 39.5495 29.8805 41.5653C29.8805 45.0767 28.5524 48.0433 26.0211 50.4696C23.4309 52.9513 20.3157 54.165 16.7311 54.165C15.4443 54.165 14.1715 53.9881 12.9295 53.6531C11.6639 53.3111 10.4584 52.7991 9.33664 52.1221C8.23142 51.4545 7.22882 50.6371 6.34889 49.6923C5.44065 48.7168 4.74944 47.5939 4.25286 46.3589C3.72561 45.0496 3.48145 43.6766 3.48145 42.2659C3.48145 40.6158 3.77987 38.9986 4.3083 37.4381C5.03371 35.2961 6.39843 33.042 7.61453 31.1429L13.7339 21.5817C14.3685 20.526 15.3157 19.9209 16.5577 19.9209H22.8258C23.4509 19.9209 23.9581 20.2004 24.1846 20.8114C24.3745 21.3587 24.2601 21.8836 23.9121 22.3224L18.005 30.5614V30.5603ZM62.9487 39.0682H65.3927C65.9388 39.0682 66.5428 39.1673 66.9462 39.6014C67.2882 39.9977 67.3908 40.5226 67.3908 41.0333V45.0708C67.3908 45.5934 67.2835 46.1312 66.9226 46.5181C66.5392 46.9451 65.9424 47.0595 65.3927 47.0595H62.9487V51.4616C62.9487 52.003 62.8461 52.5833 62.4227 52.9761C62.0346 53.3229 61.4979 53.4267 60.9919 53.4267H56.3693C55.8633 53.4267 55.3278 53.3229 54.9314 52.969C54.5163 52.5833 54.4136 52.003 54.4136 51.4616V47.0595H41.2029C40.6532 47.0595 40.0646 46.9451 39.6884 46.5252C39.3215 46.1312 39.2142 45.5922 39.2142 45.0697V41.0239C39.2142 40.6795 39.272 40.3338 39.4277 40.0248C39.6011 39.678 39.8382 39.3277 40.0575 39.0069L40.067 38.9927L54.232 20.8975C54.7038 20.349 55.3443 19.8206 56.1063 19.8206H60.9919C61.5003 19.8206 62.0263 19.9244 62.4191 20.2688C62.852 20.6487 62.9487 21.2655 62.9487 21.8105V39.0682ZM13.3412 38.7733C12.4494 39.6356 12.0177 40.6641 12.0177 41.905C12.0177 43.1529 12.4553 44.1886 13.3447 45.0638C14.2482 45.9531 15.318 46.3719 16.5837 46.3719C17.8576 46.3719 18.9345 45.9472 19.851 45.0602C20.751 44.1897 21.1992 43.1565 21.1992 41.905C21.1992 39.3466 19.0855 37.4865 16.5837 37.4865C15.3228 37.4865 14.2494 37.8958 13.3412 38.7733ZM48.9465 39.0682H54.4136V31.9297L48.9465 39.0682Z" fill="#002B8F"/>
<path fill-rule="evenodd" clip-rule="evenodd" d="M69.7717 36.7601L69.5924 36.4546L69.425 36.1456L69.2693 35.833L69.1242 35.5169L68.9909 35.1973L68.8694 34.8741L68.7597 34.5473L68.6618 34.2171L68.5757 33.8833L68.5002 33.5447L68.4365 33.2027L68.3846 32.8571L68.3445 32.5079L68.315 32.1552L68.2973 31.799L68.2914 31.4381L68.3056 30.82L68.3492 30.2137L68.4212 29.6181L68.5226 29.0342L68.6524 28.4621L68.8116 27.9007L68.9991 27.351L69.2162 26.812L69.4615 26.2847L69.7352 25.7681L70.0383 25.2632L70.3698 24.769L70.7307 24.2866L71.1199 23.816L71.5387 23.3559L71.9857 22.9077L72.3148 22.5786C72.4446 22.4442 72.5767 22.3109 72.7135 22.1799C75.1728 19.8114 78.1334 18.6272 81.6048 18.6272C82.8221 18.6272 84.0394 18.7912 85.2566 19.1202C86.4739 19.4493 87.6251 19.9436 88.7032 20.6006C89.7884 21.2587 90.7426 22.0325 91.5742 22.9372C92.4046 23.8336 93.071 24.894 93.557 26.1125C94.0418 27.3298 94.2895 28.6296 94.2895 30.0109C94.2895 31.5324 94.0335 33.0788 93.5157 34.6417C92.9566 36.2624 91.8785 38.3265 90.2744 40.8189L84.1632 50.4167C84.0228 50.6456 83.8695 50.8449 83.7008 51.0171L82.9731 51.7449L82.7088 51.9808L82.4234 52.1742L82.1155 52.3252L81.7853 52.4326L81.4326 52.4974L81.0587 52.5187H74.8072L74.6515 52.5104L74.5099 52.4868L74.3837 52.4467L74.2717 52.3901L74.1749 52.317L74.0935 52.2273L74.0275 52.1224L73.9768 52.0009L73.939 51.8711L73.919 51.7425L73.9178 51.6151L73.9343 51.4889L73.9685 51.3639L74.0216 51.2401L74.0924 51.1174L74.182 50.9959L80.7862 41.6941L80.4618 41.7437L80.167 41.7873L79.9004 41.8239L79.6633 41.8545L79.4545 41.8781L79.2752 41.8946L79.1243 41.9052L79.0016 41.9088L78.6501 41.9029L78.3009 41.8876L77.9553 41.8604L77.6121 41.8239L77.2724 41.7755L76.935 41.7165L76.6012 41.6469L76.2698 41.5667L75.9407 41.4759L75.6151 41.3745L75.2919 41.2624L74.9723 41.1397L74.655 41.0064L74.3412 40.8625L74.0299 40.708L73.7208 40.5429L73.4165 40.3695L73.1204 40.1867L72.8314 39.9956L72.5507 39.7962L72.2771 39.5886L72.0117 39.3728L71.7533 39.1487L71.5033 38.9163L71.2603 38.6757L71.0256 38.4268L70.7979 38.1697L70.5785 37.9043L70.3662 37.6306L70.161 37.3487L69.9628 37.0586L69.7729 36.7601H69.7717ZM5.44245 45.7918L5.35399 45.563L5.27142 45.3318L5.19475 45.0994L5.1228 44.8647L5.05792 44.6288L4.99777 44.3905L4.94351 44.1511L4.89515 43.9093L4.8515 43.6651L4.81376 43.4198L4.78191 43.1721L4.75596 42.922L4.73591 42.6696L4.72176 42.416L4.7135 42.16L4.70996 41.9017L4.7135 41.621L4.72294 41.3391L4.73827 41.0548L4.7595 40.7705L4.78781 40.4839L4.82202 40.1961L4.86212 39.9071L4.90812 39.617L4.9612 39.3256L5.02018 39.0331L5.08505 38.7394L5.157 38.4433L5.23485 38.1461L5.31978 37.8477L5.4106 37.5481L5.50732 37.2461L5.6182 36.9371L5.74087 36.6174L5.87652 36.2871L6.02396 35.9474L6.18438 35.5971L6.35659 35.2362L6.54177 34.8658L6.73875 34.4848L6.94753 34.0932L7.16928 33.6922L7.40283 33.2805L7.64935 32.8582L7.90767 32.4265L8.17778 31.9842L8.45969 31.5324L8.75457 31.0701L14.8822 21.497L15.1028 21.1703L15.3446 20.886L16.0724 20.1582C16.5772 19.6345 17.2118 19.3703 17.9703 19.3703H24.2383C24.6747 19.3703 24.9543 19.5425 25.0852 19.8964C25.2079 20.2502 25.1418 20.5864 24.887 20.9084L18.2415 30.1772C19.0472 30.0451 19.6393 29.9802 20.0262 29.9802C21.9099 29.9802 23.6792 30.4319 25.3152 31.3461C26.9595 32.259 28.2758 33.5259 29.2631 35.1454C30.2586 36.766 30.7517 38.5424 30.7517 40.4757C30.7517 43.5837 29.6677 46.2719 27.5056 48.5401C27.3617 48.6911 27.2131 48.8409 27.0585 48.9883L26.3308 49.7161L26.0984 49.9343L25.8625 50.1455L25.6242 50.3495L25.3824 50.5465L25.1383 50.7364L24.8906 50.9204L24.6405 51.0962L24.3869 51.266L24.1309 51.4288L23.8715 51.5845L23.6096 51.7331L23.3442 51.8746L23.0764 52.0091L22.8052 52.1377L22.5315 52.2592L22.2543 52.3736L21.9748 52.4809L21.6917 52.5812L21.4062 52.6744L21.1172 52.7617L20.8247 52.8419L20.5298 52.915L20.2326 52.981L19.9318 53.04L19.6275 53.0919L19.3208 53.1367L19.0118 53.1745L18.6992 53.2052L18.3831 53.2299L18.0646 53.2476L17.7426 53.2582L17.4182 53.2618L17.1882 53.2594L16.9582 53.2535L16.7294 53.2441L16.5006 53.2311L16.2717 53.2134L16.0429 53.1922L15.8141 53.1674L15.5852 53.1391L15.3564 53.1061L15.1276 53.0695L14.8988 53.0294L14.6699 52.9846L14.4411 52.9362L14.2134 52.8843L13.9846 52.8289L13.7558 52.7687L13.5281 52.705L13.3017 52.6378L13.0776 52.567L12.8546 52.4915L12.6329 52.4125L12.4135 52.3299L12.1953 52.2438L11.9782 52.153L11.7636 52.0587L11.5501 51.9608L11.3377 51.8593L11.1278 51.7543L10.919 51.6446L10.7114 51.5326L10.505 51.4158L10.3009 51.2955L9.90226 51.0431L9.51419 50.7789L9.13792 50.5028L8.77345 50.2162L8.41959 49.9178L8.07752 49.6088L7.74843 49.2891L7.43114 48.9588L7.27544 48.789L7.12446 48.6156L6.9782 48.4387L6.83548 48.2582L6.69629 48.073L6.56183 47.8843L6.43208 47.692L6.30587 47.4962L6.1832 47.2969L6.06524 47.094L5.95083 46.8864L5.84113 46.6753L5.73497 46.4606L5.63235 46.2424L5.53445 46.0195L5.44009 45.793L5.44245 45.7918ZM22.1375 43.2417L22.2142 43.0128L22.2791 42.7793L22.3322 42.541L22.3734 42.298L22.4029 42.0503L22.4206 41.7979L22.4265 41.5396L22.3994 41.0123L22.3204 40.5051L22.1906 40.0192L22.0149 39.558L21.7943 39.1216L21.5324 38.7134L21.2328 38.3348L20.8979 37.9868L20.5298 37.6731L20.1312 37.3947L19.7065 37.1541L19.2571 36.9524L18.7853 36.792L18.2946 36.6752L17.7886 36.6033L17.2696 36.5785L17.0054 36.5844L16.7459 36.6009L16.4923 36.6292L16.2434 36.6681L15.9993 36.7188L15.761 36.7802C15.0757 36.9937 14.5142 37.2744 13.9622 37.7391C13.2451 38.6096 12.8888 39.6299 12.8888 40.8106C12.8888 42.2001 13.3819 43.3761 14.3774 44.3551C15.3729 45.3341 16.5737 45.8189 17.9962 45.8189C20.0734 45.8189 21.4393 45.0015 22.1364 43.2405L22.1375 43.2417ZM40.7706 45.7918L40.6928 45.6963L40.6255 45.5901L40.5689 45.4722L40.5229 45.3424L40.4875 45.2009L40.4616 45.0475L40.4462 44.8824L40.4415 44.7066V40.6608L40.4439 40.5547L40.451 40.4521L40.4627 40.3518L40.4793 40.2551L40.5005 40.1619L40.5276 40.0723L40.5595 39.9862L40.5972 39.9036L40.642 39.8187L40.6951 39.7231L40.7564 39.6181L40.826 39.5037L40.9039 39.3799L40.9912 39.2454L41.0867 39.1027L41.1905 38.9505L55.3296 20.8884L55.5195 20.6796L56.2472 19.9518C56.6896 19.4989 57.1177 19.2712 57.5211 19.2712H62.4067C62.8845 19.2712 63.2383 19.3786 63.4766 19.5838C63.7066 19.789 63.8222 20.1677 63.8222 20.7185V38.5176H66.8088C67.3596 38.5176 67.7382 38.632 67.9517 38.8632C68.1581 39.1015 68.2643 39.4554 68.2643 39.9413V43.9789C68.2643 44.4648 68.157 44.8258 67.9352 45.0652C67.9163 45.0864 67.8975 45.1053 67.8762 45.1242L67.2074 45.793L67.119 45.8767L67.0164 45.9499L66.8984 46.0124L66.7651 46.0631L66.6165 46.1032L66.4525 46.1315L66.2744 46.1492L66.081 46.1551H63.8234V50.3707C63.8234 50.9051 63.709 51.2672 63.4778 51.4807L62.75 52.2085L62.658 52.2816L62.553 52.3453L62.4362 52.3995L62.3077 52.4432L62.1673 52.4774L62.0163 52.5022L61.8535 52.5175L61.6802 52.5222H57.0576L56.8842 52.5175L56.7214 52.5022L56.5704 52.4774L56.4301 52.4432L56.3015 52.3995L56.1847 52.3453L56.0797 52.2816L55.9866 52.2085L55.9052 52.1212L55.8356 52.0197L55.7766 51.9041L55.7282 51.7732L55.6905 51.6269L55.6634 51.4665L55.6469 51.2908L55.641 51.0985V46.1551H41.8888L41.6954 46.1492L41.5184 46.1315L41.3568 46.1032L41.2094 46.0631L41.0773 46.0124L40.9605 45.9499L40.8579 45.8767L40.7706 45.793V45.7918ZM55.641 38.5165V30.189L49.2632 38.5165H55.641Z" fill="#B3B3B3"/>
<path d="M69.1086 30.6576C69.1086 27.3349 70.3424 24.4887 72.8017 22.1284C75.261 19.7599 78.2217 18.5757 81.693 18.5757C82.9103 18.5757 84.1276 18.7396 85.3448 19.0687C86.5621 19.3978 87.7133 19.892 88.7914 20.549C89.8766 21.2072 90.8308 21.981 91.6624 22.8857C92.4928 23.7821 93.1592 24.8425 93.6452 26.061C94.13 27.2783 94.3777 28.5781 94.3777 29.9593C94.3777 31.4809 94.1217 33.0273 93.6039 34.5902C93.0448 36.2109 91.9667 38.275 90.3626 40.7674L84.2514 50.3652C83.6923 51.2782 82.902 51.7394 81.8747 51.7394H75.6231C75.1879 51.7394 74.9072 51.5672 74.7928 51.2216C74.6689 50.876 74.735 50.5386 74.998 50.2178L81.6022 40.916C80.6975 41.0564 80.1054 41.1295 79.8176 41.1295C77.9338 41.1295 76.174 40.6766 74.5368 39.7636C72.8925 38.8589 71.5844 37.5921 70.5889 35.9797C69.6016 34.359 69.1086 32.5909 69.1086 30.6576ZM5.52832 41.1201C5.52832 39.6232 5.79136 38.0769 6.32568 36.4656C6.88478 34.845 7.96995 32.7808 9.57411 30.2884L15.7018 20.7142C16.2609 19.7847 17.05 19.3153 18.062 19.3153H24.3301C24.7665 19.3153 25.046 19.4875 25.177 19.8413C25.2996 20.1952 25.2336 20.5325 24.9788 20.8534L18.3333 30.1221C19.1389 29.99 19.7322 29.9251 20.1179 29.9251C22.0017 29.9251 23.771 30.3769 25.407 31.291C27.0512 32.204 28.3676 33.4708 29.3549 35.0903C30.3504 36.711 30.8434 38.4874 30.8434 40.4194C30.8434 43.7339 29.6096 46.5719 27.1503 48.9321C24.6827 51.2923 21.7139 52.4766 18.2354 52.4766C17.0099 52.4766 15.7926 52.3126 14.5753 51.9824C13.358 51.6533 12.2068 51.1602 11.1217 50.5103C10.0436 49.8533 9.08107 49.0713 8.25068 48.1748C7.41085 47.2784 6.75385 46.2251 6.26081 45.0078C5.77484 43.7905 5.52832 42.4989 5.52832 41.1165V41.1201ZM14.4692 37.2382C13.4736 38.2007 12.9806 39.3685 12.9806 40.7591C12.9806 42.1486 13.4736 43.3246 14.4692 44.3036C15.4647 45.2826 16.6655 45.7674 18.088 45.7674C19.5105 45.7674 20.7195 45.2826 21.7315 44.3036C22.7436 43.3246 23.2449 42.1474 23.2449 40.7591C23.2449 37.9011 20.8882 35.7992 18.088 35.7992C16.6655 35.7992 15.4635 36.2757 14.4692 37.2382ZM41.2599 43.925V39.8792C41.2599 39.5914 41.3094 39.3354 41.4156 39.1219C41.5229 38.9084 41.7199 38.5876 42.0077 38.1677L56.1467 20.1055C56.6563 19.5134 57.1493 19.2173 57.6105 19.2173H62.4961C62.9739 19.2173 63.3277 19.3247 63.566 19.5299C63.796 19.7352 63.9116 20.1138 63.9116 20.6646V38.4638H66.8982C67.449 38.4638 67.8276 38.5782 68.0411 38.8094C68.2475 39.0476 68.3537 39.4015 68.3537 39.8875V43.925C68.3537 44.411 68.2464 44.7719 68.0246 45.0113C67.8111 45.2496 67.4325 45.3735 66.8982 45.3735H63.9116V50.3169C63.9116 50.8512 63.7972 51.2133 63.566 51.4268C63.336 51.6332 62.9739 51.7394 62.4961 51.7394H57.8736C57.3959 51.7394 57.0349 51.6332 56.8037 51.4268C56.5737 51.2133 56.4581 50.8512 56.4581 50.3169V45.3735H42.706C42.1716 45.3735 41.8013 45.2496 41.5878 45.0113C41.366 44.7731 41.2587 44.411 41.2587 43.925H41.2599ZM49.3538 38.4638H56.4605V29.1856L49.3538 38.4638Z" fill="white"/>
<path fill-rule="evenodd" clip-rule="evenodd" d="M35.178 51.316L35.1226 51.3714L34.5611 51.9329L34.4054 52.0744L34.2321 52.1912L34.0457 52.2797L33.8522 52.3363L33.6564 52.3563H31.17L30.9836 52.3363L30.8197 52.2808L30.6805 52.1924L30.5696 52.0756L30.4906 51.9341L30.4458 51.7713L30.4375 51.592L30.4693 51.3997L38.6742 20.7803L38.7449 20.588L38.8487 20.4087L38.9808 20.246L39.5977 19.6291C39.8384 19.3743 40.1745 19.2068 40.5024 19.2068H42.9889C43.515 19.2068 43.8287 19.6397 43.6884 20.1622L35.4835 50.7817C35.4305 50.9775 35.3208 51.1615 35.1769 51.3136L35.178 51.316Z" fill="url(#paint1_linear_54_8924)"/>
<path d="M81.6752 33.6805L78.5435 35.9299C77.916 36.4418 77.1351 35.9134 77.3817 35.1373L78.5989 31.3132C77.476 30.5147 76.3531 29.7173 75.2302 28.9176C74.6121 28.4776 74.9566 27.6142 75.7115 27.6107L79.7631 27.6295C80.1429 26.4182 80.5228 25.2068 80.9037 23.9954C81.0217 23.6168 81.352 23.4151 81.6763 23.4021C81.9995 23.4139 82.331 23.6168 82.4489 23.9954C82.8299 25.2068 83.2086 26.4182 83.5895 27.6295L87.6412 27.6107C88.3961 27.6142 88.7406 28.4776 88.1225 28.9176C86.9996 29.7173 85.8767 30.5147 84.7537 31.3132L85.971 35.1373C86.2175 35.9134 85.4367 36.4418 84.8092 35.9299L81.6775 33.6805H81.6752Z" fill="url(#paint2_linear_54_8924)"/>
<path d="M74.999 28.0058C75.1252 27.7805 75.3777 27.6118 75.7103 27.6095L79.762 27.6284L79.6452 28.0023L75.2043 27.981C75.1323 27.981 75.0639 27.9905 74.999 28.0046V28.0058ZM80.9899 23.8008C81.1444 23.5484 81.4121 23.4127 81.674 23.4021C81.9984 23.4151 82.3286 23.6168 82.4466 23.9954C82.8276 25.2068 83.2062 26.4182 83.5872 27.6295L87.6389 27.6107C88.3938 27.6142 88.7382 28.4776 88.1201 28.9176L87.7144 29.2066C88.1885 28.7501 87.8418 27.9858 87.1317 27.9822L83.08 28.0011C82.7002 26.7897 82.3204 25.5783 81.9394 24.367C81.8214 23.9883 81.4912 23.7866 81.1668 23.7737C81.1078 23.776 81.0477 23.7843 80.9887 23.7996L80.9899 23.8008ZM84.7549 31.312L85.9687 35.1384C86.1338 35.6586 85.8377 36.0667 85.4355 36.1257C85.5169 35.9582 85.537 35.7459 85.4615 35.51L84.2442 31.6742L84.7538 31.312H84.7549Z" fill="#FF6600"/>
<path d="M7.80158 8.44427H9.72422C9.97192 8.44427 10.1925 8.54335 10.3612 8.72382C10.5287 8.9031 10.6148 9.12368 10.6148 9.36902V10.7267C10.6148 10.9862 10.4308 11.1796 10.1701 11.1796H6.07593C5.82705 11.1796 5.60647 11.0817 5.43544 10.9012C5.26677 10.7231 5.18066 10.5014 5.18066 10.2572V0.721873C5.18066 0.461197 5.36349 0.268933 5.62535 0.268933H7.3569C7.61994 0.268933 7.80158 0.461197 7.80158 0.721873V8.44427ZM16.766 0C18.3419 0 19.6983 0.562637 20.813 1.67611C21.9288 2.78959 22.4891 4.14723 22.4891 5.72309C22.4891 7.29894 21.9277 8.65658 20.813 9.77006C19.6983 10.8835 18.3431 11.4485 16.766 11.4485C15.189 11.4485 13.8349 10.8835 12.719 9.77006C11.6044 8.65658 11.0406 7.29894 11.0406 5.72309C11.0406 4.14723 11.6044 2.78959 12.719 1.67611C13.8349 0.561457 15.189 0 16.766 0V0ZM25.2952 3.00427H23.3679C23.1048 3.00427 22.9149 2.81436 22.9149 2.55133V0.721873C22.9149 0.457658 23.1036 0.268933 23.3679 0.268933H29.9496C30.215 0.268933 30.4026 0.456479 30.4026 0.721873V2.07951C30.4026 2.33075 30.3094 2.55369 30.1325 2.7318C29.9567 2.9099 29.7302 3.00427 29.4802 3.00427H28.0258V10.7267C28.0258 10.9897 27.8359 11.1796 27.5729 11.1796H25.7482C25.4839 11.1796 25.2952 10.9909 25.2952 10.7267V3.00427ZM36.5574 0C38.1332 0 39.4897 0.562637 40.6044 1.67611C41.7202 2.78959 42.2805 4.14723 42.2805 5.72309C42.2805 7.29894 41.719 8.65658 40.6044 9.77006C39.4897 10.8835 38.1332 11.4485 36.5574 11.4485C34.9803 11.4485 33.6262 10.8835 32.5104 9.77006C31.3957 8.65658 30.8319 7.29894 30.8319 5.72309C30.8319 4.14723 31.3957 2.78959 32.5104 1.67611C33.6262 0.561457 34.9803 0 36.5574 0V0ZM18.8809 3.60701C18.2947 3.02196 17.5929 2.73415 16.7648 2.73415C15.9368 2.73415 15.235 3.0196 14.6488 3.60583C14.0625 4.19206 13.7736 4.8927 13.7736 5.72191C13.7736 6.55112 14.0614 7.25058 14.6488 7.83799C15.235 8.42421 15.9345 8.7132 16.7648 8.7132C17.5941 8.7132 18.2935 8.42421 18.8809 7.83799C19.4683 7.25176 19.7526 6.55112 19.7526 5.72191C19.7526 4.89388 19.4683 4.19206 18.8809 3.60583V3.60701ZM38.6735 3.60701C38.0872 3.02196 37.3854 2.73415 36.5574 2.73415C35.7293 2.73415 35.0275 3.0196 34.4413 3.60583C33.8551 4.19206 33.5673 4.8927 33.5673 5.72191C33.5673 6.55112 33.8551 7.25058 34.4413 7.83799C35.0275 8.42421 35.7282 8.7132 36.5574 8.7132C37.3866 8.7132 38.0861 8.42421 38.6735 7.83799C39.2609 7.25176 39.5451 6.55112 39.5451 5.72191C39.5451 4.89388 39.2609 4.19206 38.6735 3.60583V3.60701Z" fill="white"/>
<defs>
<linearGradient id="paint0_linear_54_8924" x1="54.8329" y1="53.0506" x2="54.8329" y2="13.4336" gradientUnits="userSpaceOnUse">
<stop stop-color="#2358BA"/>
<stop offset="1" stop-color="#1795D7"/>
</linearGradient>
<linearGradient id="paint1_linear_54_8924" x1="43.7218" y1="19.2068" x2="30.4375" y2="52.3563" gradientUnits="userSpaceOnUse">
<stop stop-color="#FFCD01"/>
<stop offset="1" stop-color="#FF8501"/>
</linearGradient>
<linearGradient id="paint2_linear_54_8924" x1="83.3017" y1="25.1572" x2="72.5715" y2="36.561" gradientUnits="userSpaceOnUse">
<stop stop-color="#FFCC00"/>
<stop offset="1" stop-color="#FF6600"/>
</linearGradient>
</defs>
</svg>
