<svg width="51" height="40" viewBox="0 0 51 40" fill="none" xmlns="http://www.w3.org/2000/svg">
<path fill-rule="evenodd" clip-rule="evenodd" d="M28.05 0C28.6746 8.07764e-05 29.2774 0.22489 29.7441 0.631788C30.2109 1.03869 30.5091 1.59937 30.5821 2.2075L30.6 2.5C30.6007 3.1372 30.8496 3.75008 31.2958 4.21342C31.7419 4.67676 32.3517 4.95559 33.0006 4.99293C33.6494 5.03027 34.2883 4.82331 34.7867 4.41434C35.2851 4.00536 35.6054 3.42524 35.6821 2.7925L35.7 2.5C35.7 1.83696 35.9687 1.20107 36.4469 0.732234C36.9251 0.263393 37.5737 0 38.25 0H43.35C45.3789 0 47.3247 0.790177 48.7594 2.1967C50.194 3.60322 51 5.51088 51 7.5V32.5C51 34.4891 50.194 36.3968 48.7594 37.8033C47.3247 39.2098 45.3789 40 43.35 40H38.25C37.6254 39.9999 37.0226 39.7751 36.5559 39.3682C36.0891 38.9613 35.7909 38.4006 35.7178 37.7925L35.7 37.5C35.6993 36.8628 35.4504 36.2499 35.0042 35.7866C34.5581 35.3232 33.9483 35.0444 33.2994 35.0071C32.6506 34.9697 32.0117 35.1767 31.5133 35.5857C31.0149 35.9946 30.6946 36.5748 30.6178 37.2075L30.6 37.5C30.6 38.163 30.3313 38.7989 29.8531 39.2678C29.3749 39.7366 28.7263 40 28.05 40H7.65C5.62109 40 3.67529 39.2098 2.24063 37.8033C0.80598 36.3968 0 34.4891 0 32.5V7.5C0 5.51088 0.80598 3.60322 2.24063 2.1967C3.67529 0.790177 5.62109 0 7.65 0H28.05ZM33.15 22.5C32.4737 22.5 31.8251 22.7634 31.3469 23.2322C30.8687 23.7011 30.6 24.337 30.6 25V27.5C30.6 28.163 30.8687 28.7989 31.3469 29.2678C31.8251 29.7366 32.4737 30 33.15 30C33.8263 30 34.4749 29.7366 34.9531 29.2678C35.4313 28.7989 35.7 28.163 35.7 27.5V25C35.7 24.337 35.4313 23.7011 34.9531 23.2322C34.4749 22.7634 33.8263 22.5 33.15 22.5ZM33.15 10C32.5254 10.0001 31.9226 10.2249 31.4559 10.6318C30.9891 11.0387 30.6909 11.5994 30.6178 12.2075L30.6 12.5V15C30.6007 15.6372 30.8496 16.2501 31.2958 16.7134C31.7419 17.1768 32.3517 17.4556 33.0006 17.4929C33.6494 17.5303 34.2883 17.3233 34.7867 16.9143C35.2851 16.5054 35.6054 15.9252 35.6821 15.2925L35.7 15V12.5C35.7 11.837 35.4313 11.2011 34.9531 10.7322C34.4749 10.2634 33.8263 10 33.15 10Z" fill="#141414"/>
</svg>
