<svg width="68" height="87" viewBox="0 0 68 87" fill="none" xmlns="http://www.w3.org/2000/svg">
<path d="M36.8526 85.4286C34.7422 85.8657 33.6186 84.4219 32.5116 82.9153C33.1147 81.6523 33.1221 80.4067 31.7319 79.1956C32.1607 77.3858 32.3137 75.8087 29.9938 74.2203C27.7273 72.6679 27.9217 70.8041 28.7615 68.681C29.7741 66.119 31.5681 67.904 33.065 68.2101C34.2213 68.4442 35.102 68.3465 36.0342 67.8634C31.1381 63.2257 31.1722 62.5895 36.2295 59.5743C36.6177 59.3417 36.9586 59.0552 37.3122 58.7867C37.5979 58.8139 37.8742 58.841 38.1583 58.8592C41.5378 60.0991 44.7074 61.8317 47.94 63.4478C50.1547 64.5611 50.5067 65.6726 50.0038 67.3838C48.9911 68.3507 47.6618 69.1201 47.8377 70.8588C46.8062 72.8024 47.3172 75.0971 47.3297 77.2747C46.5625 78.5106 47.4563 80.0797 47.2198 81.352C46.9191 82.9917 47.2578 85.5729 44.2326 84.9427C41.712 84.4116 41.7943 82.1893 41.7605 80.6658C41.7324 79.0706 41.3942 77.9322 39.757 76.8553C38.2554 78.5297 39.0208 80.6274 39.4116 82.5186C39.8722 84.7415 39.0613 85.5831 36.8526 85.4286Z" fill="#505050"/>
<path d="M22.3599 83.3924C21.148 83.3645 21.9503 84.8432 21.0493 85.0843C19.5414 85.486 18.2185 86.5955 17.3154 83.5849C16.7246 81.6225 17.3762 79.5987 15.91 77.7609C15.4485 77.1783 15.4521 75.8614 14.1314 76.2633C13.2089 76.5402 13.0883 77.2657 13.3359 78.2154C13.7602 79.8282 14.0942 81.4589 14.4547 83.0806C14.8168 84.7112 14.4392 85.8754 12.5978 86.0887C9.79952 86.1847 8.10283 84.9828 7.73472 82.1876C7.60182 81.1483 7.31435 80.0821 7.30634 79.0609C7.28573 76.6332 6.19869 74.8228 3.64051 73.7186C3.07069 69.6601 4.58055 67.7266 7.72931 68.5805C8.87166 68.8951 10.2504 69.5324 10.7599 68.4758C11.3323 67.3029 10.107 65.967 9.02609 65.5271C7.21935 64.7998 7.52699 63.6624 7.33427 62.5515C7.9484 62.1221 8.55325 61.6927 9.16575 61.2543C10.8785 60.5392 12.0444 58.1038 14.3244 59.3241C18.0043 61.2983 22.5618 61.822 25.1781 65.7659C22.2996 69.7406 21.2082 74.335 22.5252 79.6213C22.8685 81.0459 22.5967 82.1744 22.3599 83.3924Z" fill="#505050"/>
<path d="M35.0794 18.1907C32.8756 15.7432 32.0788 13.5747 33.9546 10.9787C35.3445 9.05402 34.1274 6.16848 33.6065 3.7673C32.9629 0.846459 35.0744 0.678208 36.8191 0.446913C39.0823 0.135475 39.6991 1.82907 40.1113 3.68372C40.4298 5.12622 39.8073 7.66967 41.8925 7.71638C43.8654 7.76299 42.1009 5.26213 42.1558 3.91851C42.2027 2.73612 41.579 0.952939 43.4583 0.99946C45.2254 1.04588 47.1383 1.79114 47.8618 3.76253C48.4944 5.49197 48.817 7.26591 49.2751 9.01311C49.6073 9.81066 49.9394 10.6082 50.2716 11.4058C50.7344 12.3557 50.4939 13.5021 51.6103 14.2914C52.5173 16.8094 56.2802 18.4163 55.9441 20.8884C55.6002 23.3694 52.484 24.0831 50.444 25.416C47.8687 27.0977 43.2157 26.3051 40.7498 23.6513C39.8534 22.683 38.5595 21.5352 40.5578 20.6413C41.3363 20.2926 41.781 19.1375 40.9147 18.232C40.2559 17.5416 39.2414 17.6213 38.5158 18.1581C37.5157 18.8827 36.3943 19.043 35.0794 18.1907Z" fill="#505050"/>
<path d="M60.1877 51.9004C58.9533 55.6379 55.5291 57.132 52.1528 58.6806C51.339 59.0519 50.7012 59.2963 49.8528 58.2792C48.36 56.481 46.198 56.1614 44.2024 55.5062C44.013 54.7256 43.4792 54.344 42.6871 54.2616C41.1904 51.556 44.4259 50.3793 43.8969 47.9922C45.1386 47.0043 46.4229 46.1978 48.1733 48.0053C48.4845 48.2052 48.7845 48.3961 49.0957 48.596C49.3661 48.8322 49.635 49.0593 49.9054 49.2955C48.698 51.0457 47.0789 52.8773 52.2832 53.5627C49.9004 52.2901 50.0246 51.41 50.7783 49.8226C52.368 46.4756 55.2146 44.255 57.5632 41.5893C58.0236 41.6714 58.4823 41.7444 58.9426 41.8265C59.1664 41.9629 59.389 42.1446 59.6235 42.2355C66.3276 44.8098 67.0977 47.3242 62.5048 51.6666C60.297 50.9386 60.8429 49.2512 60.4539 47.7899C59.473 49.014 57.4804 49.9378 60.1877 51.9004Z" fill="#505050"/>
<path d="M30.858 19.7348C31.6073 22.7733 28.8035 23.1022 27.2061 24.3015C22.6203 27.7473 21.4197 27.8357 15.9931 24.3447C14.3828 23.3126 12.4367 21.411 15.7079 20.4105C16.8689 20.0531 17.3492 19.2471 16.5402 17.938C15.6286 16.4764 14.7514 17.2104 14.0373 17.6578C11.8686 19.0089 10.0529 18.0304 8.34997 16.129C6.69431 14.2814 7.62794 12.983 8.79395 11.8818C10.7265 10.0556 9.45555 7.54524 9.09514 5.35837C8.43139 1.29832 9.64905 0.224131 14.1016 1.65317C14.6839 4.08221 15.2959 6.52023 15.8237 8.95817C15.9822 9.67522 16.3022 10.0967 17.0348 10.2139C17.9314 10.3581 17.8819 9.62325 17.9949 9.11256C18.5049 6.72041 17.3264 4.25497 16.9594 1.82614C18.8616 -0.475086 20.6684 1.94614 22.4959 2.83503C24.2383 8.76003 24.9398 15.0335 30.858 19.7348Z" fill="#505050"/>
<path d="M18.8024 48.6745C19.411 48.3759 20.0674 48.1317 20.6043 47.7514C21.7205 46.9637 22.4468 48.1975 23.2788 48.6064C24.4231 49.1696 24.3315 49.9675 23.7626 50.6923C23.3015 51.2812 22.5716 51.7974 23.9241 53.1406C24.9613 51.3463 26.2056 49.8061 26.8227 47.9932C27.776 45.1652 31.1667 44.5428 32.3066 41.9597C32.4013 41.7513 32.8979 41.6702 33.2327 41.6886C35.319 41.8085 40.0462 45.5126 40.8569 47.6261C40.1802 48.4868 39.4273 49.2931 38.8568 50.2174C38.3439 51.042 38.2895 52.1482 36.5778 51.4846C34.7157 50.7755 35.672 49.7337 35.5749 48.6274C32.5465 50.1477 35.1311 53.7863 33.3918 55.6252C30.6991 56.2845 29.2664 58.7676 26.4188 59.2C25.6354 58.7459 24.8626 58.2464 24.0591 57.8376C17.4989 54.5217 17.5006 54.5307 18.8024 48.6745Z" fill="#505050"/>
<path d="M24.7024 36.3624C28.422 41.0824 28.0842 42.5061 23.5705 44.4065C21.1154 45.4381 19.7232 43.3053 18.0867 42.433C16.1903 41.4335 14.6726 39.5999 12.9935 38.1289C11.8587 36.9941 10.7239 35.8593 9.58914 34.7244C9.95269 34.1715 10.3162 33.6186 10.6798 33.0656C11.2866 33.1206 11.6028 32.7763 11.2896 32.3043C10.9237 31.7507 10.5275 32.1766 10.2054 32.3849C9.48479 33.1098 6.88509 32.8262 8.96643 35.0503C11.4527 37.3656 8.81859 37.9345 7.92002 38.7227C6.58863 39.8915 6.11923 38.0407 5.48462 37.2601C4.75605 36.3796 4.49992 35.1277 3.0968 34.8089C1.83935 32.7397 2.22688 31.2254 3.99452 30.1115C5.24364 29.3236 6.43215 28.4631 7.65572 27.6389C11.5251 26.9351 14.4749 30.7564 18.1317 31.1227C18.7681 32.3297 19.4408 33.5275 20.0426 34.7526C20.7343 36.1591 21.4457 35.28 22.1538 35.1628C23.1301 35.2181 24.0649 35.4095 24.7024 36.3624Z" fill="#505050"/>
<path d="M50.9595 37.43C53.471 39.5801 53.0028 41.2198 50.9231 42.586L50.9655 42.5588C50.1748 42.5309 50.0549 43.1197 49.8443 43.627C47.7951 45.0567 45.9557 44.8826 43.8401 42.5154C42.4743 40.9917 40.5094 39.9205 38.9066 38.5506C36.7559 36.718 35.5998 34.5783 36.5993 31.6977C34.9466 32.3938 33.7955 32.8819 32.679 33.352C32.7169 34.5482 34.0756 34.5767 34.492 35.3565C35.1806 36.6439 34.4762 37.1416 33.6364 37.8838C32.5851 38.8161 31.8609 38.0089 31.2173 37.4373C30.1526 36.4757 29.7681 34.9349 28.222 34.3443C28.5769 33.5382 27.9505 32.7492 27.7391 31.9516C29.6581 30.0143 31.4004 27.8866 34.1259 26.7929C36.8677 27.3484 38.9616 29.9602 41.8493 30.0175C44.3664 33.0828 48.5485 34.2197 50.9595 37.43Z" fill="#505050"/>
</svg>
