<svg width="68" height="86" viewBox="0 0 68 86" fill="none" xmlns="http://www.w3.org/2000/svg">
<path d="M35.9485 85.2478C33.8307 85.6481 32.7325 84.1848 31.6519 82.6592C32.277 81.4069 32.3061 80.1616 30.9373 78.9264C31.3976 77.1244 31.578 75.5502 29.2863 73.9216C27.0472 72.3298 27.2741 70.4697 28.1507 68.3616C29.2079 65.8177 30.9705 67.6337 32.4618 67.9659C33.6139 68.2201 34.4961 68.1377 35.4366 67.671C30.6222 62.9486 30.6673 62.3131 35.7765 59.3866C36.1687 59.1608 36.5145 58.8803 36.8727 58.618C37.1579 58.6501 37.4338 58.6821 37.7175 58.7053C41.0748 60.0039 44.2137 61.7915 47.4177 63.4638C49.6126 64.6155 49.9452 65.7331 49.4125 67.4352C48.3831 68.3842 47.0405 69.1304 47.1861 70.8718C46.1209 72.7972 46.5918 75.1004 46.5662 77.2779C45.7776 78.5003 46.6439 80.0847 46.3852 81.3527C46.056 82.9869 46.3496 85.5736 43.3358 84.8908C40.8249 84.3158 40.946 82.0952 40.9387 80.5713C40.9384 78.9759 40.6202 77.8318 39.002 76.7265C37.4714 78.3744 38.2001 80.4851 38.5579 82.3829C38.9796 84.6135 38.1541 85.4408 35.9485 85.2478Z" fill="#FFF6CC"/>
<path d="M21.4912 82.9588C20.2801 82.9097 21.0564 84.4023 20.1513 84.6275C18.6367 85.0029 17.2946 86.0892 16.4442 83.0632C15.8877 81.0909 16.5744 79.0787 15.1406 77.2157C14.6893 76.625 14.7159 75.3085 13.3884 75.6873C12.4612 75.948 12.3279 76.6712 12.5589 77.6252C12.955 79.2451 13.2606 80.8814 13.5927 82.5091C13.9263 84.1458 13.5285 85.3033 11.6836 85.4844C8.88407 85.5315 7.20861 84.3002 6.88932 81.499C6.77456 80.4576 6.50574 79.3865 6.51554 78.3653C6.53729 75.9377 5.482 74.1085 2.94347 72.9599C2.44454 68.8921 3.98789 66.9852 7.12128 67.8939C8.25797 68.2284 9.62543 68.8896 10.1532 67.8421C10.746 66.6793 9.54425 65.3223 8.47113 64.8636C6.67735 64.1049 7.00479 62.9731 6.83148 61.8589C7.453 61.4403 8.06525 61.0215 8.6853 60.5939C10.4103 59.9088 11.6185 57.4941 13.8768 58.754C17.5218 60.7921 22.0694 61.3952 24.6165 65.3842C21.6691 69.308 20.4977 73.8826 21.7223 79.1912C22.0408 80.6216 21.7493 81.7451 21.4912 82.9588Z" fill="#FFF6CC"/>
<path d="M35.3484 17.9888C33.1877 15.5033 32.4289 13.3212 34.3497 10.7582C35.7729 8.85814 34.6063 5.9518 34.1274 3.5419C33.5349 0.610279 35.649 0.478889 37.3974 0.278064C39.6658 0.00615594 40.2529 1.71025 40.6326 3.57181C40.9259 5.01965 40.2592 7.55185 42.3432 7.63493C44.315 7.71595 42.5944 5.18469 42.6728 3.84223C42.7403 2.66084 42.1478 0.867049 44.026 0.946348C45.792 1.02359 47.6917 1.8021 48.3806 3.78581C48.9829 5.52603 49.2746 7.30533 49.7022 9.06025C50.0203 9.86348 50.3385 10.6667 50.6567 11.4699C51.1028 12.4278 50.8424 13.5698 51.9449 14.3785C52.8078 16.9119 56.5421 18.5842 56.1629 21.05C55.7758 23.5247 52.6477 24.1839 50.5847 25.481C47.9804 27.1175 43.3419 26.2439 40.9228 23.5475C40.0434 22.5637 38.7697 21.3935 40.7833 20.5346C41.5677 20.1996 42.0325 19.0524 41.1821 18.1318C40.5355 17.4301 39.5197 17.4921 38.7849 18.0161C37.7724 18.7232 36.6483 18.8639 35.3484 17.9888Z" fill="#FFF6CC"/>
<path d="M59.8638 52.1309C58.5644 55.8463 55.1147 57.2804 51.7119 58.7699C50.8918 59.1269 50.2498 59.3602 49.4192 58.3284C47.9581 56.5045 45.8019 56.1472 43.8181 55.4573C43.6423 54.6735 43.1153 54.2826 42.3248 54.1864C40.8755 51.4551 44.131 50.3351 43.6437 47.9391C44.9025 46.973 46.2007 46.1891 47.9192 48.0268C48.2269 48.2321 48.5236 48.4282 48.8312 48.6335C49.0975 48.8744 49.3623 49.1061 49.6286 49.347C48.3908 51.0759 46.7401 52.8789 51.9315 53.6551C49.5714 52.341 49.7109 51.4632 50.4922 49.8893C52.14 46.5705 55.0249 44.3999 57.4197 41.7756C57.8785 41.8657 58.3359 41.9467 58.7947 42.0368C59.0161 42.1771 59.2355 42.3626 59.4684 42.4576C66.1265 45.1485 66.8526 47.6759 62.1847 51.9376C59.9899 51.1711 60.5652 49.4936 60.2017 48.0256C59.1996 49.2325 57.1912 50.1213 59.8638 52.1309Z" fill="#FFF6CC"/>
<path d="M31.0988 19.4589C31.795 22.5101 28.9859 22.79 27.3678 23.9612C22.7226 27.3264 21.5206 27.394 16.1557 23.8088C14.5637 22.7488 12.651 20.8135 15.9392 19.8702C17.1062 19.5331 17.6006 18.7356 16.8145 17.4126C15.9285 15.9354 15.0387 16.6539 14.3169 17.0888C12.125 18.4018 10.3266 17.3918 8.6571 15.461C7.03392 13.5848 7.99006 12.3028 9.17511 11.2222C11.1392 9.42996 9.91226 6.89784 9.59005 4.70501C8.99723 0.634005 10.2334 -0.418779 14.6604 1.08772C15.2002 3.52654 15.7696 5.97487 16.2548 8.42165C16.4008 9.14135 16.7134 9.56835 17.4438 9.6983C18.3377 9.85814 18.3011 9.12253 18.423 8.61389C18.9746 6.231 17.8393 3.74538 17.5147 1.31051C19.4568 -0.957176 21.2211 1.4952 23.0328 2.41584C24.6716 8.37032 25.2635 14.6551 31.0988 19.4589Z" fill="#FFF6CC"/>
<path d="M18.5411 48.1842C19.1548 47.8963 19.8154 47.6636 20.3588 47.2927C21.4886 46.5245 22.1933 47.7709 23.0181 48.1942C24.1523 48.7773 24.0468 49.5734 23.4653 50.2882C22.9941 50.869 22.2553 51.3723 23.5841 52.739C24.6524 50.9631 25.9234 49.4448 26.5721 47.6429C27.5745 44.8319 30.9756 44.2688 32.1604 41.706C32.2587 41.4993 32.7567 41.4268 33.0911 41.4511C35.175 41.6074 39.8368 45.3934 40.6106 47.5207C39.9189 48.3695 39.152 49.1625 38.5655 50.0767C38.0384 50.8922 37.9647 51.9973 36.2648 51.3039C34.4154 50.5625 35.3897 49.5375 35.3118 48.4297C32.2574 49.897 34.7781 53.58 33.007 55.3884C30.3033 56.0006 28.8274 58.4583 25.9727 58.841C25.1973 58.3733 24.4334 57.8604 23.6371 57.4376C17.1358 54.0077 17.1373 54.0168 18.5411 48.1842Z" fill="#FFF6CC"/>
<path d="M24.6564 35.9767C28.293 40.7609 27.9305 42.1784 23.3844 43.9998C20.9116 44.9884 19.5568 42.8317 17.9358 41.931C16.0571 40.8985 14.5716 39.0387 12.9184 37.5387C11.8036 36.3842 10.6888 35.2298 9.57398 34.0753C9.94713 33.5288 10.3202 32.9823 10.6934 32.4358C11.2991 32.5014 11.6214 32.1626 11.3164 31.6853C10.9602 31.1253 10.5566 31.5443 10.231 31.7469C9.49782 32.4592 6.90346 32.1302 8.94569 34.3903C11.3912 36.7486 8.74756 37.2714 7.83537 38.0439C6.4838 39.1892 6.04676 37.3306 5.42586 36.539C4.71276 35.6459 4.47851 34.3897 3.08116 34.0465C1.86 31.9557 2.27389 30.4484 4.06069 29.3655C5.32336 28.5995 6.52671 27.7598 7.76447 26.9571C11.6456 26.321 14.5283 30.1931 18.1781 30.6232C18.7933 31.841 19.4451 33.0505 20.0254 34.2858C20.6924 35.7042 21.4191 34.8376 22.1291 34.7328C23.1042 34.8051 24.0356 35.0128 24.6564 35.9767Z" fill="#FFF6CC"/>
<path d="M50.8893 37.5024C53.3629 39.696 52.8661 41.3273 50.7629 42.657L50.8058 42.6306C50.0158 42.5888 49.8855 43.1755 49.6661 43.679C47.5923 45.0727 45.7562 44.8667 43.6822 42.4629C42.3432 40.9156 40.3974 39.8103 38.8187 38.4126C36.7002 36.5427 35.5816 34.3832 36.6313 31.5205C34.9667 32.1876 33.8072 32.6557 32.6827 33.1062C32.6997 34.3028 34.0577 34.3551 34.4604 35.142C35.1265 36.4412 34.4135 36.9265 33.5609 37.654C32.4935 38.5678 31.7834 37.7481 31.15 37.1654C30.1022 36.1854 29.7446 34.638 28.209 34.0206C28.578 33.2208 27.9655 32.421 27.768 31.6198C29.7204 29.7163 31.4996 27.6193 34.2438 26.5733C36.9755 27.1765 39.0235 29.8245 41.9098 29.9321C44.3731 33.0409 48.5347 34.2506 50.8893 37.5024Z" fill="#FFF6CC"/>
</svg>
