<svg width="67" height="86" viewBox="0 0 67 86" fill="none" xmlns="http://www.w3.org/2000/svg">
<path d="M35.8936 85.0253C33.7832 85.4624 32.6596 84.0186 31.5526 82.512C32.1557 81.249 32.1631 80.0034 30.7729 78.7923C31.2017 76.9825 31.3547 75.4054 29.0348 73.817C26.7683 72.2645 26.9627 70.4007 27.8025 68.2777C28.8151 65.7157 30.6091 67.5007 32.106 67.8068C33.2623 68.0409 34.143 67.9432 35.0752 67.4601C30.1791 62.8224 30.2132 62.1862 35.2705 59.171C35.6587 58.9384 35.9996 58.6519 36.3532 58.3834C36.6389 58.4106 36.9153 58.4377 37.1993 58.4559C40.5788 59.6958 43.7484 61.4283 46.981 63.0445C49.1957 64.1578 49.5477 65.2693 49.0448 66.9805C48.0322 67.9474 46.7028 68.7168 46.8788 70.4555C45.8473 72.3991 46.3583 74.6937 46.3707 76.8714C45.6036 78.1073 46.4973 79.6764 46.2608 80.9487C45.9602 82.5884 46.2988 85.1696 43.2736 84.5394C40.7531 84.0083 40.8354 81.7859 40.8015 80.2625C40.7734 78.6673 40.4352 77.5289 38.798 76.452C37.2964 78.1263 38.0618 80.224 38.4526 82.1153C38.9132 84.3381 38.1023 85.1797 35.8936 85.0253Z" fill="#E4BF16"/>
<path d="M21.4009 82.9891C20.1891 82.9611 20.9913 84.4399 20.0903 84.681C18.5825 85.0827 17.2595 86.1922 16.3564 83.1815C15.7657 81.2192 16.4172 79.1953 14.951 77.3576C14.4895 76.7749 14.4931 75.4581 13.1724 75.86C12.2499 76.1368 12.1293 76.8623 12.3769 77.8121C12.8012 79.4249 13.1352 81.0555 13.4957 82.6773C13.8578 84.3079 13.4803 85.4721 11.6388 85.6854C8.84054 85.7813 7.14385 84.5794 6.77574 81.7842C6.64284 80.745 6.35537 79.6787 6.34736 78.6575C6.32675 76.2299 5.23971 74.4194 2.68153 73.3153C2.11171 69.2568 3.62156 67.3233 6.77033 68.1772C7.91267 68.4918 9.29146 69.1291 9.80087 68.0725C10.3733 66.8995 9.14806 65.5637 8.06711 65.1238C6.26037 64.3965 6.568 63.2591 6.37528 62.1482C6.98941 61.7188 7.59426 61.2893 8.20676 60.851C9.91954 60.1359 11.0854 57.7004 13.3654 58.9208C17.0453 60.895 21.6028 61.4187 24.2191 65.3626C21.3406 69.3372 20.2492 73.9316 21.5662 79.218C21.9096 80.6426 21.6377 81.7711 21.4009 82.9891Z" fill="#E4BF16"/>
<path d="M34.1204 17.7874C31.9166 15.3399 31.1199 13.1714 32.9956 10.5753C34.3855 8.6507 33.1684 5.76516 32.6475 3.36398C32.0039 0.443139 34.1155 0.274888 35.8601 0.0435925C38.1233 -0.267845 38.7401 1.42575 39.1523 3.2804C39.4708 4.7229 38.8483 7.26635 40.9335 7.31306C42.9064 7.35967 41.1419 4.85881 41.1969 3.51519C41.2437 2.3328 40.62 0.549619 42.4993 0.59614C44.2664 0.642558 46.1794 1.38782 46.9028 3.35921C47.5354 5.08865 47.858 6.86259 48.3162 8.60979C48.6483 9.40734 48.9805 10.2049 49.3126 11.0024C49.7754 11.9524 49.5349 13.0988 50.6513 13.8881C51.5583 16.4061 55.3212 18.013 54.9851 20.4851C54.6412 22.9661 51.5251 23.6798 49.485 25.0126C46.9097 26.6943 42.2567 25.9018 39.7908 23.248C38.8944 22.2797 37.6005 21.1319 39.5988 20.238C40.3773 19.8893 40.822 18.7342 39.9557 17.8286C39.2969 17.1383 38.2824 17.218 37.5568 17.7548C36.5567 18.4794 35.4354 18.6396 34.1204 17.7874Z" fill="#E4BF16"/>
<path d="M59.2287 51.4971C57.9943 55.2346 54.5701 56.7287 51.1938 58.2773C50.38 58.6486 49.7422 58.893 48.8938 57.8759C47.401 56.0777 45.239 55.7581 43.2434 55.1029C43.054 54.3223 42.5202 53.9407 41.7282 53.8583C40.2314 51.1527 43.4669 49.976 42.9379 47.5889C44.1797 46.601 45.464 45.7945 47.2143 47.602C47.5255 47.8019 47.8255 47.9928 48.1367 48.1927C48.4071 48.4289 48.676 48.656 48.9464 48.8922C47.739 50.6424 46.1199 52.474 51.3242 53.1594C48.9414 51.8867 49.0656 51.0066 49.8193 49.4193C51.4091 46.0723 54.2556 43.8517 56.6042 41.186C57.0646 41.2681 57.5233 41.3411 57.9836 41.4232C58.2074 41.5595 58.43 41.7412 58.6646 41.8322C65.3686 44.4065 66.1387 46.9209 61.5458 51.2633C59.338 50.5353 59.8839 48.8479 59.4949 47.3866C58.514 48.6107 56.5214 49.5344 59.2287 51.4971Z" fill="#E4BF16"/>
<path d="M29.899 19.3315C30.6483 22.37 27.8445 22.6989 26.2472 23.8982C21.6614 27.3439 20.4607 27.4324 15.0341 23.9414C13.4238 22.9093 11.4777 21.0077 14.7489 20.0071C15.9099 19.6498 16.3902 18.8437 15.5812 17.5346C14.6696 16.0731 13.7924 16.8071 13.0783 17.2545C10.9096 18.6056 9.09388 17.6271 7.39099 15.7257C5.73532 13.8781 6.66895 12.5796 7.83497 11.4785C9.76748 9.65225 8.49657 7.14192 8.13616 4.95505C7.4724 0.895 8.69006 -0.17919 13.1426 1.24985C13.7249 3.67889 14.3369 6.11691 14.8647 8.55485C15.0232 9.2719 15.3433 9.69338 16.0758 9.81057C16.9724 9.95479 16.9229 9.21992 17.0359 8.70924C17.5459 6.31709 16.3674 3.85165 16.0004 1.42282C17.9026 -0.878406 19.7094 1.54282 21.537 2.43171C23.2793 8.3567 23.9808 14.6302 29.899 19.3315Z" fill="#E4BF16"/>
<path d="M17.8434 48.2712C18.452 47.9726 19.1084 47.7284 19.6453 47.3481C20.7615 46.5603 21.4879 47.7942 22.3199 48.203C23.4641 48.7663 23.3725 49.5641 22.8036 50.289C22.3426 50.8779 21.6126 51.394 22.9651 52.7373C24.0023 50.943 25.2466 49.4028 25.8637 47.5899C26.817 44.7618 30.2077 44.1395 31.3476 41.5564C31.4423 41.348 31.9389 41.2668 32.2737 41.2853C34.36 41.4052 39.0872 45.1093 39.898 47.2227C39.2212 48.0835 38.4683 48.8897 37.8978 49.814C37.385 50.6387 37.3305 51.7448 35.6188 51.0812C33.7567 50.3722 34.713 49.3304 34.6159 48.2241C31.5875 49.7444 34.1721 53.3829 32.4328 55.2219C29.7401 55.8812 28.3074 58.3642 25.4598 58.7967C24.6764 58.3426 23.9037 57.8431 23.1001 57.4343C16.54 54.1183 16.5416 54.1274 17.8434 48.2712Z" fill="#E4BF16"/>
<path d="M23.7434 35.9591C27.463 40.6791 27.1253 42.1028 22.6116 44.0032C20.1564 45.0348 18.7642 42.902 17.1277 42.0297C15.2313 41.0302 13.7136 39.1966 12.0345 37.7256C10.8997 36.5908 9.76496 35.4559 8.63015 34.3211C8.99371 33.7682 9.35723 33.2152 9.72079 32.6623C10.3276 32.7173 10.6439 32.373 10.3306 31.901C9.96468 31.3474 9.56851 31.7733 9.24645 31.9816C8.52581 32.7065 5.9261 32.4229 8.00745 34.647C10.4938 36.9623 7.85961 37.5312 6.96103 38.3194C5.62965 39.4881 5.16025 37.6374 4.52564 36.8568C3.79707 35.9763 3.54093 34.7244 2.13781 34.4056C0.880367 32.3364 1.2679 30.8221 3.03553 29.7082C4.28465 28.9203 5.47317 28.0597 6.69674 27.2355C10.5661 26.5318 13.5159 30.3531 17.1727 30.7194C17.8091 31.9263 18.4818 33.1242 19.0836 34.3493C19.7753 35.7558 20.4867 34.8767 21.1948 34.7594C22.1711 34.8148 23.1059 35.0062 23.7434 35.9591Z" fill="#E4BF16"/>
<path d="M50.0006 37.0266C52.512 39.1768 52.0438 40.8165 49.9641 42.1827L50.0065 42.1555C49.2159 42.1275 49.0959 42.7164 48.8853 43.2237C46.8361 44.6533 44.9967 44.4793 42.8811 42.1121C41.5153 40.5884 39.5505 39.5172 37.9477 38.1473C35.7969 36.3147 34.6408 34.175 35.6403 31.2944C33.9876 31.9905 32.8365 32.4786 31.72 32.9487C31.7579 34.1449 33.1166 34.1734 33.533 34.9531C34.2216 36.2406 33.5172 36.7383 32.6774 37.4805C31.6261 38.4128 30.9019 37.6055 30.2584 37.034C29.1936 36.0724 28.8091 34.5316 27.263 33.941C27.6179 33.1349 26.9916 32.3459 26.7801 31.5483C28.6991 29.611 30.4414 27.4833 33.1669 26.3896C35.9087 26.9451 38.0026 29.5569 40.8903 29.6142C43.4075 32.6795 47.5896 33.8164 50.0006 37.0266Z" fill="#E4BF16"/>
</svg>
