<svg width="51" height="40" viewBox="0 0 51 40" fill="none" xmlns="http://www.w3.org/2000/svg">
<path d="M25.6642 0H25.9479C28.5682 0.0106771 41.8449 0.117449 45.4247 1.19228C46.5069 1.52031 47.4931 2.1597 48.2846 3.04656C49.0761 3.93342 49.6453 5.03669 49.9353 6.24611C50.2573 7.59854 50.4836 9.38874 50.6366 11.2359L50.6685 11.606L50.7386 12.5314L50.7641 12.9015C50.9713 16.1545 50.9968 19.201 51 19.8665V20.1335C50.9968 20.8239 50.9681 24.0769 50.7386 27.4651L50.7131 27.8388L50.6844 28.2089C50.525 30.2447 50.2891 32.2662 49.9353 33.7539C49.6462 34.9638 49.0773 36.0676 48.2856 36.9546C47.494 37.8416 46.5074 38.4807 45.4247 38.8077C41.727 39.9181 27.6724 39.9964 25.7247 40H25.2721C24.2871 40 20.2132 39.9786 15.9417 39.8149L15.3998 39.7936L15.1224 39.7793L14.5773 39.7544L14.0323 39.7295C10.4939 39.5551 7.12451 39.274 5.5721 38.8042C4.48984 38.4774 3.50349 37.8389 2.71185 36.9525C1.92022 36.0662 1.3511 34.9631 1.0615 33.7539C0.707669 32.2698 0.471779 30.2447 0.312395 28.2089L0.286893 27.8352L0.261391 27.4651C0.104071 25.0535 0.0168944 22.6368 0 20.2189L0 19.7811C0.0063754 19.0159 0.031877 16.3716 0.204013 13.4532L0.226327 13.0866L0.23589 12.9015L0.261391 12.5314L0.331521 11.606L0.363398 11.2359C0.516407 9.38874 0.742734 7.59498 1.06469 6.24611C1.3538 5.0362 1.9227 3.93242 2.71437 3.0454C3.50604 2.15839 4.49265 1.51933 5.57529 1.19228C7.1277 0.729603 10.4971 0.444879 14.0354 0.266927L14.5773 0.242014L15.1256 0.220661L15.3998 0.209984L15.9449 0.18507C18.9786 0.0760734 22.0136 0.0155632 25.0489 0.0035592L25.6642 0ZM20.4013 11.4245V28.5719L33.6525 20.0018L20.4013 11.4245Z" fill="#141414"/>
</svg>
